<svg xmlns="http://www.w3.org/2000/svg" viewBox="0 0 40.634 18.009"><path d="M-12.849-17.442-4.919,0h-2.4L-9.272-4.3H-16.4L-18.327,0h-2.386Zm-.006,5.242-2.687,5.991h5.4ZM9.42-16.216v2.6a11.468,11.468,0,0,0-5-1.332A6.914,6.914,0,0,0-.508-13.06a6.133,6.133,0,0,0-2,4.642A6.086,6.086,0,0,0-.461-3.736,7.315,7.315,0,0,0,4.674-1.859,9.717,9.717,0,0,0,9.42-3.27V-.646A10.367,10.367,0,0,1,4.476.567,9.317,9.317,0,0,1-2.2-2.074a8.485,8.485,0,0,1-2.769-6.37,8.375,8.375,0,0,1,2.722-6.271,9.14,9.14,0,0,1,6.559-2.608A13.143,13.143,0,0,1,9.42-16.216Zm1.194-.58h9.308V-14.5h-7.04v4.192h7.04v2.268h-7.04v5.774h7.04V0H10.614Z" transform="translate(20.713 17.442)" fill="#ddd"/></svg>